<?xml version="1.0" encoding="UTF-8" standalone="no"?><!DOCTYPE svg PUBLIC "-//W3C//DTD SVG 1.1//EN" "http://www.w3.org/Graphics/SVG/1.1/DTD/svg11.dtd"><svg width="100%" height="100%" viewBox="0 0 931 1345" version="1.1" xmlns="http://www.w3.org/2000/svg" xmlns:xlink="http://www.w3.org/1999/xlink" xml:space="preserve" xmlns:serif="http://www.serif.com/" style="fill-rule:evenodd;clip-rule:evenodd;stroke-linejoin:round;stroke-miterlimit:2;"><path d="M0.001,33.943c0.118,-18.754 15.381,-33.943 34.163,-33.943c8.05,-0 15.453,2.79 21.295,7.455l0.429,-0.207l856.293,635.046c10.772,5.749 18.112,17.104 18.112,30.16c-0,10.559 -4.801,20.006 -12.336,26.274l0.029,0.596l-863.302,638.73c-0.154,0.115 -0.308,0.229 -0.462,0.342l-0.012,0.008l-0,0c-5.633,4.091 -12.56,6.504 -20.046,6.504c-18.856,-0 -34.164,-15.309 -34.164,-34.164l0,-1276.58l0.001,-0.221Z" style="fill:#ebebeb;"/></svg>