<?xml version="1.0" encoding="UTF-8" standalone="no"?><!DOCTYPE svg PUBLIC "-//W3C//DTD SVG 1.1//EN" "http://www.w3.org/Graphics/SVG/1.1/DTD/svg11.dtd"><svg width="100%" height="100%" viewBox="0 0 937 1345" version="1.1" xmlns="http://www.w3.org/2000/svg" xmlns:xlink="http://www.w3.org/1999/xlink" xml:space="preserve" xmlns:serif="http://www.serif.com/" style="fill-rule:evenodd;clip-rule:evenodd;stroke-linejoin:round;stroke-miterlimit:2;"><path d="M936.026,1310.6c0.051,18.755 -15.074,34.082 -33.855,34.251c-8.05,0.073 -15.477,-2.65 -21.361,-7.262l-0.427,0.21l-861.999,-627.28c-10.823,-5.651 -18.265,-16.94 -18.383,-29.995c-0.095,-10.559 4.62,-20.049 12.098,-26.384l-0.035,-0.596l857.495,-646.506c0.152,-0.117 0.305,-0.233 0.459,-0.346l0.011,-0.009l0.001,-0c5.595,-4.142 12.5,-6.617 19.985,-6.685c18.855,-0.17 34.302,15 34.472,33.855l11.538,1276.53l0.001,0.22Z" style="fill:#ebebeb;"/></svg>