<?xml version="1.0" encoding="UTF-8" standalone="no"?><!DOCTYPE svg PUBLIC "-//W3C//DTD SVG 1.1//EN" "http://www.w3.org/Graphics/SVG/1.1/DTD/svg11.dtd"><svg width="100%" height="100%" viewBox="0 0 422 541" version="1.1" xmlns="http://www.w3.org/2000/svg" xmlns:xlink="http://www.w3.org/1999/xlink" xml:space="preserve" xmlns:serif="http://www.serif.com/" style="fill-rule:evenodd;clip-rule:evenodd;stroke-linejoin:round;stroke-miterlimit:2;"><path d="M133.021,255.746l-28.019,93.143c0,-0 -27.296,111.643 -15.145,187.043c4.902,30.418 83.327,-107.639 79.016,-171.259c-1.959,-28.905 26.043,23.942 81.22,26.826c27.231,1.423 107.6,-0.983 154.481,-121.768c15.814,-40.742 24.215,-104.421 8.197,-147.107c-8.431,-22.47 -33.641,-96.413 -127.541,-114.587c-93.9,-18.174 -157.873,-6.082 -218.26,41.97c-71.806,57.139 -70.104,148.253 -64.652,177.938c5.452,29.684 20.784,74.848 71.765,81.407c21.337,2.746 17.276,-44.649 -5.67,-73.302c-6.348,-7.927 -12.24,-41.773 -3.091,-77.167c12.98,-50.216 78.755,-109.045 144.788,-111.469c66.033,-2.423 174.86,42.552 122.979,209.61c-5.853,18.845 -24.838,49.865 -51.198,65.048c-43.505,25.058 -106.765,17.67 -83.441,-61.112c17.059,-57.622 28.303,-85.537 28.303,-85.537c-0,-0 13.26,-65.238 -56.994,-60.048c-25.59,1.89 -42.576,39.392 -47.69,61.211c-5.815,24.814 5.429,65.136 5.429,65.136l5.523,14.024Z" style="fill:#dab76d;"/></svg>